<?xml version="1.0" encoding="utf-8"?>
<!-- Generator: Adobe Illustrator 26.3.1, SVG Export Plug-In . SVG Version: 6.00 Build 0)  -->
<svg version="1.1" xmlns="http://www.w3.org/2000/svg" xmlns:xlink="http://www.w3.org/1999/xlink" x="0px" y="0px"
	 viewBox="0 0 345.7 80.3" style="enable-background:new 0 0 345.7 80.3;" xml:space="preserve">
<style type="text/css">
	.st0{fill:#FFFFFF;}
	.st1{display:none;}
</style>
<g id="Layer_1">
	<g>
		<g>
			<path class="st0" d="M334.7,73.7c-3.2,0-5.4-2.2-5.4-5.6c0-3.3,2.3-5.6,5.4-5.6c3.2,0,5.4,2.3,5.4,5.6
				C340.1,71.5,337.8,73.7,334.7,73.7z M334.7,63.2c-2.6,0-4.6,1.8-4.6,4.9c0,3.1,2.1,4.9,4.6,4.9c2.6,0,4.7-1.8,4.7-4.9
				C339.4,65,337.3,63.2,334.7,63.2z M336.3,71.1l-1.8-2.6h-0.6V71h-1.1v-6.2h1.9c1.3,0,2.2,0.6,2.2,1.8c0,0.9-0.5,1.5-1.2,1.7
				l1.8,2.5L336.3,71.1z M334.7,65.8h-0.8v1.8h0.8c0.7,0,1.1-0.3,1.1-0.9C335.7,66.1,335.4,65.8,334.7,65.8z"/>
			<g>
				<path class="st0" d="M46.8,6.3L4.9,73.7h14.3c0,0,10.3-16.8,10.7-17.4h24.1l0,17.4l13.5,0V6.3H46.8z M53.9,44.4H37.3
					c1-1.6,16.5-26.8,16.5-26.8V44.4z"/>
				<rect x="77" y="6.3" class="st0" width="13.1" height="67.4"/>
				<rect x="99.7" y="6.3" class="st0" width="13.1" height="67.4"/>
				<path class="st0" d="M141.8,41.9c-7.2-1.9-8.6-2.9-8.5-5.9c0.2-2.7,2.4-4.3,6-4.3c4.5,0,10.1,1.6,14.9,4.3l0.8,0.4l1.8-11.2
					l-0.4-0.2c-4.9-2.2-10.8-3.4-17-3.4c-6,0-11.1,1.9-14.4,5.2c-2.6,2.7-3.9,6.1-3.9,10c0.2,10.4,5.2,13.3,16.9,16.4
					c7.8,1.9,9.3,3.1,9.3,6.8c0,3.3-2,4.6-7.3,4.6c-5.5,0-11.7-2-17.1-5.6l-0.8-0.5l-1.8,11.3l0.4,0.2c4.2,2.3,11.4,4.7,19,4.7
					c7.3,0,12.8-1.7,16.1-5.1c2.6-2.7,3.9-6.3,3.8-10.7C159.4,47.6,153.7,44.9,141.8,41.9z"/>
				<path class="st0" d="M191.5,62.3l-0.7,0.2c-0.9,0.2-2,0.4-3.6,0.4c-3.9,0-5.7-1.8-5.7-5.6c0,0,0-22.7,0-23.9c1.1,0,9.6,0,9.6,0
					l0.2-11c0,0-8.7,0-9.8,0c0-1.1,0-16.2,0-16.2h-12.9c0,0,0,15.1,0,16.2c-1,0-6.8,0-6.8,0v11c0,0,5.7,0,6.8,0c0,1.2,0,25.9,0,25.9
					c0,10.2,5.3,15.2,16.4,15.2c3.6,0,5.7-0.4,7.7-0.8l0.6-0.1L191.5,62.3z"/>
				<path class="st0" d="M219.4,21.4c-8.2,0-14.3,2-19.3,3.9l-0.5,0.2l1.7,10.8l0.7-0.3c5.9-2.6,10.9-3.8,15.7-3.8
					c5.2,0,7.6,2.1,7.6,6.8c0,0,0,0.8,0,1.3c-19.4,2-28.9,8.6-28.9,20.3c0,8.6,5.6,14.1,14.2,14.1c6,0,10.9-2.2,15.5-6.6
					c0.2,1.5,0.9,5.6,0.9,5.6h11.4V38.6C238.6,26.9,232.5,21.4,219.4,21.4z M214.9,64.4c-3.2,0-5.2-2-5.2-5.2
					c0-5.7,5.5-9.4,15.8-10.8v11.1C222.3,62.7,218.6,64.4,214.9,64.4z"/>
				<path class="st0" d="M272.3,62.3l-0.7,0.2c-0.9,0.2-2.1,0.4-3.6,0.4c-3.9,0-5.7-1.8-5.7-5.6c0,0,0-22.7,0-23.9
					c1.1,0,9.7,0,9.7,0l0.2-11c0,0-8.7,0-9.8,0c0-1.1,0-16.2,0-16.2h-13c0,0,0,15.1,0,16.2c-1,0-6.7,0-6.7,0v11c0,0,5.7,0,6.7,0
					c0,1.2,0,25.9,0,25.9c0,10.2,5.4,15.2,16.4,15.2c3.5,0,5.8-0.4,7.7-0.8l0.6-0.1L272.3,62.3z"/>
				<path class="st0" d="M317.4,58.4c-5.9,4.1-10.7,5.8-16.1,5.8c-7.1,0-11.4-4.8-12.2-13.1c1.3,0,30.6,0,30.6,0l0.1-3.5
					c0-17.4-7.2-26.2-21.5-26.2c-6.3,0-11.4,1.9-15.3,5.8c-4.7,4.7-7.2,12-7.2,21c0,16.3,9.2,26.5,24,26.5c7.2,0,13.8-2,19.5-5.9
					l0.3-0.2l-1.6-10.7L317.4,58.4z M289.3,42.5c0.6-7.3,3.8-11.6,8.8-11.6c6.8,0,8.6,6.1,8.9,11.6H289.3z"/>
			</g>
		</g>
	</g>
</g>
<g id="grid" class="st1">
</g>
</svg>
